<svg width="366" height="317" viewBox="0 0 366 317" fill="none" xmlns="http://www.w3.org/2000/svg">
<g clip-path="url(#clip0)">
<path d="M78.298 50.1413L0 22.7385L78.298 32.6501V29.7349L125.799 15.742L168.602 62.9681L121.623 98.5334L122.887 73.4628L78.298 54.8056V50.1413Z" fill="white"/>
<path d="M117.447 102.615L208.273 32.6501L251.598 40.2296L334.072 36.7314L214.375 138.763L223.43 204.063L265.169 274.611L231.272 260.618L238.548 313.091L171.212 195.901L117.447 102.615Z" fill="white"/>
<path d="M125.799 15.742L168.602 62.9681L121.623 98.5334L122.887 73.4628M125.799 15.742L122.887 73.4628M125.799 15.742L78.298 29.7349V54.8056L122.887 73.4628M117.447 102.615L208.273 32.6501M117.447 102.615L193.135 138.763L208.273 32.6501M117.447 102.615L171.212 195.901M208.273 32.6501L251.598 40.2296L334.072 36.7314L214.375 138.763M171.212 195.901L195.223 155.088L214.375 138.763M171.212 195.901L238.548 313.091L231.272 260.618M214.375 138.763L223.43 204.063M223.43 204.063L265.169 274.611L231.272 260.618M223.43 204.063L231.272 260.618M0 22.7385L78.298 50.1413V32.6501L0 22.7385Z" stroke="#252F3D" stroke-width="1.16608"/>
<path d="M312.67 0L299.099 38.4805L251.576 40.5L246.204 39L312.67 0Z" fill="white" stroke="#252F3D" stroke-width="1.16608"/>
<path d="M251.076 40.2296L268.823 92.703" stroke="#252F3D" stroke-width="1.16608"/>
</g>
<defs>
<clipPath id="clip0">
<rect width="366" height="317" fill="white"/>
</clipPath>
</defs>
</svg>
