<svg width="855" height="317" viewBox="0 0 855 317" fill="none" xmlns="http://www.w3.org/2000/svg">
<g clip-path="url(#clip0)">
<path d="M69.5353 164.488C69.2796 173.312 66.4822 180.105 61.1431 184.869C55.8361 189.6 48.323 191.966 38.6041 191.966C27.2227 191.966 18.4628 188.961 12.3245 182.951C6.21822 176.908 3.16506 168.292 3.16506 157.103C3.16506 146.52 6.33011 138.048 12.6602 131.686C19.0223 125.324 27.5104 122.143 38.1245 122.143C41.6732 122.143 44.9822 122.527 48.0513 123.294C51.1524 124.029 54.0937 125.18 56.8751 126.747L58.5535 123.102H69.2476V150.245H57.4506C56.2996 143.915 54.5413 139.327 52.1755 136.482C49.8097 133.604 46.6286 132.166 42.6323 132.166C37.9967 132.166 34.6238 134.132 32.5138 138.064C30.4037 141.965 29.3487 148.247 29.3487 156.911C29.3487 165.862 30.4357 172.304 32.6097 176.237C34.7836 180.169 38.3164 182.135 43.2078 182.135C47.6517 182.135 51.2963 180.553 54.1416 177.388C56.987 174.191 58.5855 169.891 58.9372 164.488H69.5353ZM114.23 132.166C109.786 132.166 106.541 134.132 104.495 138.064C102.481 141.965 101.474 148.247 101.474 156.911C101.474 165.735 102.481 172.113 104.495 176.045C106.509 179.977 109.722 181.943 114.134 181.943C118.61 181.943 121.855 179.993 123.869 176.093C125.883 172.193 126.89 165.894 126.89 157.199C126.89 148.439 125.883 142.077 123.869 138.112C121.855 134.148 118.642 132.166 114.23 132.166ZM75.9613 157.103C75.9613 146.201 79.3502 137.649 86.1279 131.446C92.9056 125.244 102.273 122.143 114.23 122.143C126.123 122.143 135.442 125.244 142.188 131.446C148.965 137.649 152.354 146.201 152.354 157.103C152.354 168.004 148.965 176.541 142.188 182.711C135.41 188.881 126.027 191.966 114.038 191.966C102.177 191.966 92.8576 188.865 86.0799 182.663C79.3342 176.461 75.9613 167.941 75.9613 157.103ZM165.878 174.99V139.023C165.878 136.466 165.558 134.899 164.919 134.324C164.279 133.716 162.793 133.413 160.459 133.413H157.15V124.109H202.516C210.54 124.109 216.519 125.468 220.451 128.186C224.415 130.903 226.397 135.011 226.397 140.51C226.397 144.219 225.183 147.336 222.753 149.861C220.323 152.387 216.886 154.113 212.442 155.041C216.918 155.584 219.939 156.959 221.506 159.165C223.104 161.339 223.904 166.342 223.904 174.175C223.904 176.541 224.096 178.187 224.479 179.114C224.895 180.009 225.566 180.457 226.493 180.457C227.388 180.457 228.044 179.897 228.459 178.778C228.907 177.659 229.131 175.965 229.131 173.695C229.131 173.471 229.115 173.104 229.083 172.592C229.051 172.081 229.035 171.697 229.035 171.441H235.701C235.701 171.729 235.717 172.177 235.749 172.784C235.781 173.359 235.797 173.791 235.797 174.079C235.797 180.217 234.534 184.677 232.008 187.458C229.483 190.208 225.406 191.583 219.78 191.583C213.801 191.583 209.437 190.336 206.688 187.842C203.97 185.348 202.612 181.384 202.612 175.949V170.434C202.612 166.022 202.02 163.225 200.837 162.042C199.686 160.827 197.272 160.22 193.596 160.22H187.697V174.99C187.697 177.548 188.017 179.13 188.657 179.738C189.328 180.345 190.799 180.649 193.068 180.649H196.809V190H157.15V180.649H160.459C162.761 180.649 164.231 180.345 164.871 179.738C165.542 179.13 165.878 177.548 165.878 174.99ZM187.506 151.3H193.26C197.32 151.3 200.166 150.661 201.796 149.382C203.459 148.071 204.29 145.897 204.29 142.86C204.29 139.535 203.523 137.201 201.988 135.858C200.486 134.516 197.816 133.844 193.98 133.844H187.506V151.3ZM246.347 174.99V139.023C246.347 136.466 246.027 134.899 245.388 134.324C244.748 133.716 243.262 133.413 240.928 133.413H237.619V124.109H282.985C291.009 124.109 296.988 125.468 300.92 128.186C304.884 130.903 306.867 135.011 306.867 140.51C306.867 144.219 305.652 147.336 303.222 149.861C300.792 152.387 297.355 154.113 292.912 155.041C297.387 155.584 300.409 156.959 301.975 159.165C303.574 161.339 304.373 166.342 304.373 174.175C304.373 176.541 304.565 178.187 304.948 179.114C305.364 180.009 306.035 180.457 306.962 180.457C307.858 180.457 308.513 179.897 308.929 178.778C309.376 177.659 309.6 175.965 309.6 173.695C309.6 173.471 309.584 173.104 309.552 172.592C309.52 172.081 309.504 171.697 309.504 171.441H316.17C316.17 171.729 316.186 172.177 316.218 172.784C316.25 173.359 316.266 173.791 316.266 174.079C316.266 180.217 315.003 184.677 312.477 187.458C309.952 190.208 305.875 191.583 300.249 191.583C294.27 191.583 289.906 190.336 287.157 187.842C284.439 185.348 283.081 181.384 283.081 175.949V170.434C283.081 166.022 282.489 163.225 281.306 162.042C280.155 160.827 277.742 160.22 274.065 160.22H268.167V174.99C268.167 177.548 268.486 179.13 269.126 179.738C269.797 180.345 271.268 180.649 273.538 180.649H277.278V190H237.619V180.649H240.928C243.23 180.649 244.7 180.345 245.34 179.738C246.011 179.13 246.347 177.548 246.347 174.99ZM267.975 151.3H273.729C277.79 151.3 280.635 150.661 282.265 149.382C283.928 148.071 284.759 145.897 284.759 142.86C284.759 139.535 283.992 137.201 282.457 135.858C280.955 134.516 278.285 133.844 274.449 133.844H267.975V151.3ZM387.24 124.109V148.662H376.786C376.114 145.465 375.395 142.972 374.628 141.181C373.892 139.391 372.981 137.952 371.894 136.865C370.647 135.619 369.129 134.739 367.338 134.228C365.548 133.684 362.655 133.413 358.658 133.413H356.692H348.252V151.492H350.794C353.767 151.492 355.845 150.772 357.028 149.334C358.243 147.895 358.85 145.338 358.85 141.661V141.086H367.099V171.154H358.85C358.722 166.55 358.115 163.561 357.028 162.186C355.973 160.811 353.927 160.124 350.89 160.124H348.252V180.649H359.905C364.413 180.649 367.514 180.377 369.209 179.833C370.935 179.29 372.262 178.363 373.189 177.052C374.212 175.486 375.011 173.583 375.587 171.345C376.194 169.075 376.594 166.23 376.786 162.809H387.623V190H318.088V180.649H321.397C323.571 180.649 324.994 180.393 325.665 179.881C326.368 179.37 326.72 177.899 326.72 175.47V174.99V139.023C326.72 136.466 326.4 134.899 325.761 134.324C325.122 133.716 323.635 133.413 321.301 133.413H318.088V124.109H387.24ZM415.821 134.42C412.209 134.42 409.443 135.651 407.525 138.112C405.607 140.542 404.648 144.091 404.648 148.758V149.046H394.913V124.109H464.256V149.046H454.617V148.758C454.617 144.123 453.642 140.574 451.692 138.112C449.774 135.651 446.992 134.42 443.348 134.42H440.47V174.99C440.47 177.516 440.806 179.098 441.477 179.738C442.149 180.345 443.651 180.649 445.985 180.649H451.5V190H408.148V180.649H413.28C415.486 180.649 416.94 180.393 417.644 179.881C418.347 179.338 418.699 177.707 418.699 174.99V134.42H415.821Z" fill="white"/>
<path d="M509.436 176.152C507.275 180.866 502.659 184.697 495.391 184.697C487.436 184.697 481.445 179.589 479.186 171.143L506.391 162.206C509.338 161.224 511.007 159.554 511.007 156.411C511.007 149.635 504.525 141.876 492.74 141.876C479.677 141.876 469.562 152.188 469.562 166.036C469.562 181.357 479.677 190.982 492.347 190.982C504.623 190.982 511.105 182.83 512.284 176.938C512.579 175.072 510.32 174.777 509.436 176.152ZM491.267 145.019C498.043 145.019 502.757 152.188 502.757 156.608C502.757 158.277 502.07 159.358 500.4 160.045L478.499 167.902C478.204 166.331 478.106 164.661 478.106 162.893C478.106 152.876 483.311 145.019 491.267 145.019ZM558.848 182.143L556.884 162.599C555.607 149.635 548.34 141.876 536.259 141.876C525.554 141.876 518.876 147.376 518.876 152.581C518.876 154.84 520.349 156.215 522.706 156.215C527.617 156.215 526.045 145.019 536.259 145.019C544.116 145.019 547.259 151.304 548.34 162.893L548.536 165.545C545.884 163.09 541.661 161.617 536.456 161.617C526.242 161.617 518.385 166.724 518.483 176.152C518.483 185.58 525.947 190.982 536.75 190.982C543.92 190.982 548.634 188.232 550.893 184.107C551.286 189.509 553.643 190.589 558.063 190.589C561.696 190.589 564.348 190 564.348 188.527C564.348 186.071 559.438 188.232 558.848 182.143ZM538.911 187.839C531.84 187.839 527.126 182.143 527.126 174.973C527.126 168.884 531.742 164.759 538.42 164.759C544.215 164.759 548.241 168 549.223 172.616L549.616 177.036C549.813 183.027 545.491 187.839 538.911 187.839ZM587.513 190.884C599.691 190.884 607.352 184.991 607.352 177.625C607.352 157.983 577.397 167.608 577.397 153.465C577.397 148.554 581.816 144.92 587.513 144.92C599.593 144.92 597.137 156.902 602.736 156.902C604.7 156.902 606.271 155.429 606.271 153.465C606.271 148.161 599.298 141.876 587.12 141.876C576.316 141.876 568.656 147.769 568.656 155.331C568.656 174.679 598.709 164.956 598.709 179.393C598.709 184.991 593.798 188.036 587.513 188.036C574.352 188.036 577.495 176.054 571.406 176.054C569.147 176.054 567.575 177.331 567.575 179.688C567.575 184.304 574.45 190.884 587.513 190.884ZM659.211 142.858H649.39C648.506 142.858 647.916 143.349 647.916 144.036V144.331C647.916 146.295 653.809 146.197 651.649 151.206L637.604 183.714L623.462 150.42C621.595 146.197 625.131 146.295 625.131 144.331V144.036C625.131 143.349 624.542 142.858 623.756 142.858H610.989C610.203 142.858 609.515 143.251 609.515 144.036V144.331C609.515 146.295 612.265 146.197 614.23 150.322L633.086 191.866C629.649 200.509 625.328 207.384 621.104 207.384C615.015 207.384 616.39 198.152 611.283 198.152C608.926 198.152 607.551 199.821 607.551 202.08C607.551 205.91 612.265 210.821 619.631 210.821C629.256 210.821 633.774 200.018 637.604 191.375L656.166 150.42C658.032 146.197 660.586 146.295 660.586 144.331V144.036C660.586 143.251 659.997 142.858 659.211 142.858Z" fill="#FD0000"/>
<path d="M599.356 50.1413L521.058 22.7385L599.356 32.6501V29.7349L646.856 15.742L689.659 62.9681L642.68 98.5334L643.945 73.4628L599.356 54.8056V50.1413Z" fill="white"/>
<path d="M638.505 102.615L729.33 32.6501L772.655 40.2296L855.129 36.7314L735.432 138.763L744.487 204.063L786.227 274.611L752.329 260.618L759.606 313.091L692.269 195.901L638.505 102.615Z" fill="white"/>
<path d="M646.856 15.742L689.659 62.9681L642.68 98.5334L643.945 73.4628M646.856 15.742L643.945 73.4628M646.856 15.742L599.356 29.7349V54.8056L643.945 73.4628M638.505 102.615L729.33 32.6501M638.505 102.615L714.193 138.763L729.33 32.6501M638.505 102.615L692.269 195.901M729.33 32.6501L772.655 40.2296L855.129 36.7314L735.432 138.763M692.269 195.901L716.281 155.088L735.432 138.763M692.269 195.901L759.606 313.091L752.329 260.618M735.432 138.763L744.487 204.063M744.487 204.063L786.227 274.611L752.329 260.618M744.487 204.063L752.329 260.618M521.058 22.7385L599.356 50.1413V32.6501L521.058 22.7385Z" stroke="#252F3D" stroke-width="1.16608"/>
<path d="M833.728 0L820.156 38.4805L772.634 40.5L767.262 39L833.728 0Z" fill="white" stroke="#252F3D" stroke-width="1.16608"/>
<path d="M772.133 40.2296L789.881 92.703" stroke="#252F3D" stroke-width="1.16608"/>
</g>
<defs>
<clipPath id="clip0">
<rect width="855" height="317" fill="white"/>
</clipPath>
</defs>
</svg>
